<mxfile host="app.diagrams.net" modified="2024-05-28T13:35:31.366Z" agent="Mozilla/5.0 (Windows NT 10.0; Win64; x64) AppleWebKit/537.36 (KHTML, like Gecko) Chrome/125.0.0.0 Safari/537.36 Edg/125.0.0.0" etag="_UqNheGckD4oYQdKOuBw" version="24.4.9" type="device">
  <diagram name="第 1 页" id="Z0V8dbVa-5bJPnrBIO7Z">
    <mxGraphModel dx="1188" dy="626" grid="1" gridSize="10" guides="1" tooltips="1" connect="1" arrows="1" fold="1" page="1" pageScale="1" pageWidth="827" pageHeight="1169" math="0" shadow="0">
      <root>
        <mxCell id="0" />
        <mxCell id="1" parent="0" />
        <mxCell id="BYR6fxOjp8F17I5fI36C-157" value="&lt;b&gt;&lt;i&gt;Transation&lt;/i&gt;&lt;/b&gt;" style="rounded=0;whiteSpace=wrap;html=1;fillColor=#ffe6cc;strokeColor=#d79b00;" vertex="1" parent="1">
          <mxGeometry x="70" y="90" width="660" height="310" as="geometry" />
        </mxCell>
        <mxCell id="BYR6fxOjp8F17I5fI36C-4" value="&lt;p style=&quot;margin-top: 0px; margin-left: 0px; margin-bottom: 55px;&quot;&gt;&lt;b&gt;OS&lt;/b&gt;&lt;/p&gt;" style="rounded=0;whiteSpace=wrap;html=1;align=left;" vertex="1" parent="1">
          <mxGeometry x="80" y="860" width="640" height="90" as="geometry" />
        </mxCell>
        <mxCell id="BYR6fxOjp8F17I5fI36C-33" value="&lt;b&gt;&lt;i&gt;磁盘&lt;/i&gt;&lt;/b&gt;" style="rounded=0;whiteSpace=wrap;html=1;align=left;" vertex="1" parent="1">
          <mxGeometry x="550" y="872.5" width="150" height="70" as="geometry" />
        </mxCell>
        <mxCell id="BYR6fxOjp8F17I5fI36C-13" value="&lt;p style=&quot;margin-top: 0px; margin-left: 0px; margin-bottom: 35px;&quot;&gt;&lt;b&gt;file&lt;/b&gt;&lt;/p&gt;" style="rounded=1;whiteSpace=wrap;html=1;align=left;fillColor=#fff2cc;strokeColor=#d6b656;" vertex="1" parent="1">
          <mxGeometry x="590" y="875" width="100" height="55" as="geometry" />
        </mxCell>
        <mxCell id="BYR6fxOjp8F17I5fI36C-14" value="Block&lt;div&gt;0&lt;/div&gt;" style="rounded=0;whiteSpace=wrap;html=1;fillColor=#f8cecc;strokeColor=#b85450;" vertex="1" parent="1">
          <mxGeometry x="610" y="882.5" width="30" height="40" as="geometry" />
        </mxCell>
        <mxCell id="BYR6fxOjp8F17I5fI36C-15" value="Block&lt;div&gt;1&lt;/div&gt;" style="rounded=0;whiteSpace=wrap;html=1;fillColor=#f8cecc;strokeColor=#b85450;" vertex="1" parent="1">
          <mxGeometry x="650" y="882.5" width="30" height="40" as="geometry" />
        </mxCell>
        <mxCell id="BYR6fxOjp8F17I5fI36C-32" value="&lt;b&gt;&lt;i&gt;内存&lt;/i&gt;&lt;/b&gt;" style="rounded=0;whiteSpace=wrap;html=1;align=left;" vertex="1" parent="1">
          <mxGeometry x="120" y="872.5" width="150" height="70" as="geometry" />
        </mxCell>
        <mxCell id="BYR6fxOjp8F17I5fI36C-16" value="&lt;p style=&quot;margin-top: 0px; margin-left: 0px; margin-bottom: 35px;&quot;&gt;&lt;b&gt;file&lt;/b&gt;&lt;/p&gt;" style="rounded=1;whiteSpace=wrap;html=1;align=left;fillColor=#fff2cc;strokeColor=#d6b656;" vertex="1" parent="1">
          <mxGeometry x="160" y="875" width="100" height="55" as="geometry" />
        </mxCell>
        <mxCell id="BYR6fxOjp8F17I5fI36C-18" value="Page&lt;div&gt;0&lt;/div&gt;" style="rounded=0;whiteSpace=wrap;html=1;fillColor=#d5e8d4;strokeColor=#82b366;" vertex="1" parent="1">
          <mxGeometry x="220" y="882.5" width="30" height="40" as="geometry" />
        </mxCell>
        <mxCell id="BYR6fxOjp8F17I5fI36C-48" value="&lt;p style=&quot;margin-top: 0px; margin-left: 0px; margin-bottom: 65px;&quot;&gt;&lt;b&gt;LogManager&lt;/b&gt;&lt;/p&gt;" style="rounded=0;whiteSpace=wrap;html=1;align=left;" vertex="1" parent="1">
          <mxGeometry x="80" y="670" width="640" height="90" as="geometry" />
        </mxCell>
        <mxCell id="BYR6fxOjp8F17I5fI36C-49" value="Page&lt;div&gt;0&lt;/div&gt;" style="swimlane;fontStyle=0;childLayout=stackLayout;horizontal=1;startSize=30;horizontalStack=0;resizeParent=1;resizeParentMax=0;resizeLast=0;collapsible=1;marginBottom=0;whiteSpace=wrap;html=1;fillColor=#d5e8d4;strokeColor=#82b366;" vertex="1" collapsed="1" parent="1">
          <mxGeometry x="180" y="882.5" width="30" height="40" as="geometry">
            <mxRectangle x="180" y="882.5" width="60" height="150" as="alternateBounds" />
          </mxGeometry>
        </mxCell>
        <mxCell id="BYR6fxOjp8F17I5fI36C-50" value="setInt()" style="text;strokeColor=none;fillColor=none;align=left;verticalAlign=middle;spacingLeft=4;spacingRight=4;overflow=hidden;points=[[0,0.5],[1,0.5]];portConstraint=eastwest;rotatable=0;whiteSpace=wrap;html=1;" vertex="1" parent="BYR6fxOjp8F17I5fI36C-49">
          <mxGeometry y="30" width="60" height="30" as="geometry" />
        </mxCell>
        <mxCell id="BYR6fxOjp8F17I5fI36C-51" value="getInt()" style="text;strokeColor=none;fillColor=none;align=left;verticalAlign=middle;spacingLeft=4;spacingRight=4;overflow=hidden;points=[[0,0.5],[1,0.5]];portConstraint=eastwest;rotatable=0;whiteSpace=wrap;html=1;" vertex="1" parent="BYR6fxOjp8F17I5fI36C-49">
          <mxGeometry y="60" width="60" height="30" as="geometry" />
        </mxCell>
        <mxCell id="BYR6fxOjp8F17I5fI36C-52" value="setString()" style="text;strokeColor=none;fillColor=none;align=left;verticalAlign=middle;spacingLeft=4;spacingRight=4;overflow=hidden;points=[[0,0.5],[1,0.5]];portConstraint=eastwest;rotatable=0;whiteSpace=wrap;html=1;" vertex="1" parent="BYR6fxOjp8F17I5fI36C-49">
          <mxGeometry y="90" width="60" height="30" as="geometry" />
        </mxCell>
        <mxCell id="BYR6fxOjp8F17I5fI36C-54" value="getString()" style="text;strokeColor=none;fillColor=none;align=left;verticalAlign=middle;spacingLeft=4;spacingRight=4;overflow=hidden;points=[[0,0.5],[1,0.5]];portConstraint=eastwest;rotatable=0;whiteSpace=wrap;html=1;" vertex="1" parent="BYR6fxOjp8F17I5fI36C-49">
          <mxGeometry y="120" width="60" height="30" as="geometry" />
        </mxCell>
        <mxCell id="BYR6fxOjp8F17I5fI36C-59" value="&lt;b&gt;&lt;i&gt;FileManager&lt;/i&gt;&lt;/b&gt;" style="rounded=0;whiteSpace=wrap;html=1;align=left;" vertex="1" parent="1">
          <mxGeometry x="340" y="872.5" width="150" height="70" as="geometry" />
        </mxCell>
        <mxCell id="BYR6fxOjp8F17I5fI36C-60" value="" style="endArrow=classic;html=1;rounded=0;exitX=1;exitY=0.5;exitDx=0;exitDy=0;" edge="1" parent="1" source="BYR6fxOjp8F17I5fI36C-32" target="BYR6fxOjp8F17I5fI36C-59">
          <mxGeometry width="50" height="50" relative="1" as="geometry">
            <mxPoint x="410" y="820" as="sourcePoint" />
            <mxPoint x="460" y="770" as="targetPoint" />
          </mxGeometry>
        </mxCell>
        <mxCell id="BYR6fxOjp8F17I5fI36C-61" value="read()&lt;div&gt;write()&lt;/div&gt;&lt;div&gt;append()&lt;/div&gt;" style="edgeLabel;html=1;align=center;verticalAlign=middle;resizable=0;points=[];" vertex="1" connectable="0" parent="BYR6fxOjp8F17I5fI36C-60">
          <mxGeometry x="-0.077" relative="1" as="geometry">
            <mxPoint as="offset" />
          </mxGeometry>
        </mxCell>
        <mxCell id="BYR6fxOjp8F17I5fI36C-62" value="read()&lt;div&gt;write()&lt;/div&gt;&lt;div&gt;append()&lt;/div&gt;" style="text;strokeColor=none;fillColor=none;align=left;verticalAlign=middle;spacingLeft=4;spacingRight=4;overflow=hidden;points=[[0,0.5],[1,0.5]];portConstraint=eastwest;rotatable=0;whiteSpace=wrap;html=1;" vertex="1" parent="1">
          <mxGeometry x="420" y="882.5" width="80" height="50" as="geometry" />
        </mxCell>
        <mxCell id="BYR6fxOjp8F17I5fI36C-63" value="" style="endArrow=classic;html=1;rounded=0;entryX=0;entryY=0.5;entryDx=0;entryDy=0;" edge="1" parent="1" target="BYR6fxOjp8F17I5fI36C-33">
          <mxGeometry width="50" height="50" relative="1" as="geometry">
            <mxPoint x="490" y="908" as="sourcePoint" />
            <mxPoint x="460" y="770" as="targetPoint" />
          </mxGeometry>
        </mxCell>
        <mxCell id="BYR6fxOjp8F17I5fI36C-65" value="BasicLogRecord" style="swimlane;fontStyle=0;childLayout=stackLayout;horizontal=1;startSize=30;horizontalStack=0;resizeParent=1;resizeParentMax=0;resizeLast=0;collapsible=1;marginBottom=0;whiteSpace=wrap;html=1;" vertex="1" collapsed="1" parent="1">
          <mxGeometry x="270" y="700" width="130" height="30" as="geometry">
            <mxRectangle x="270" y="700" width="130" height="90" as="alternateBounds" />
          </mxGeometry>
        </mxCell>
        <mxCell id="BYR6fxOjp8F17I5fI36C-66" value="nextInt()" style="text;strokeColor=none;fillColor=none;align=left;verticalAlign=middle;spacingLeft=4;spacingRight=4;overflow=hidden;points=[[0,0.5],[1,0.5]];portConstraint=eastwest;rotatable=0;whiteSpace=wrap;html=1;" vertex="1" parent="BYR6fxOjp8F17I5fI36C-65">
          <mxGeometry y="30" width="130" height="30" as="geometry" />
        </mxCell>
        <mxCell id="BYR6fxOjp8F17I5fI36C-67" value="nextString()" style="text;strokeColor=none;fillColor=none;align=left;verticalAlign=middle;spacingLeft=4;spacingRight=4;overflow=hidden;points=[[0,0.5],[1,0.5]];portConstraint=eastwest;rotatable=0;whiteSpace=wrap;html=1;" vertex="1" parent="BYR6fxOjp8F17I5fI36C-65">
          <mxGeometry y="60" width="130" height="30" as="geometry" />
        </mxCell>
        <mxCell id="BYR6fxOjp8F17I5fI36C-127" style="edgeStyle=orthogonalEdgeStyle;rounded=0;orthogonalLoop=1;jettySize=auto;html=1;exitX=0;exitY=0.5;exitDx=0;exitDy=0;entryX=1;entryY=0.5;entryDx=0;entryDy=0;" edge="1" parent="1" source="BYR6fxOjp8F17I5fI36C-69" target="BYR6fxOjp8F17I5fI36C-65">
          <mxGeometry relative="1" as="geometry" />
        </mxCell>
        <mxCell id="BYR6fxOjp8F17I5fI36C-69" value="LogIterator" style="swimlane;fontStyle=0;childLayout=stackLayout;horizontal=1;startSize=30;horizontalStack=0;resizeParent=1;resizeParentMax=0;resizeLast=0;collapsible=1;marginBottom=0;whiteSpace=wrap;html=1;" vertex="1" collapsed="1" parent="1">
          <mxGeometry x="460" y="700" width="130" height="30" as="geometry">
            <mxRectangle x="460" y="700" width="130" height="90" as="alternateBounds" />
          </mxGeometry>
        </mxCell>
        <mxCell id="BYR6fxOjp8F17I5fI36C-70" value="hasNext()" style="text;strokeColor=none;fillColor=none;align=left;verticalAlign=middle;spacingLeft=4;spacingRight=4;overflow=hidden;points=[[0,0.5],[1,0.5]];portConstraint=eastwest;rotatable=0;whiteSpace=wrap;html=1;" vertex="1" parent="BYR6fxOjp8F17I5fI36C-69">
          <mxGeometry y="30" width="130" height="30" as="geometry" />
        </mxCell>
        <mxCell id="BYR6fxOjp8F17I5fI36C-71" value="next()" style="text;strokeColor=none;fillColor=none;align=left;verticalAlign=middle;spacingLeft=4;spacingRight=4;overflow=hidden;points=[[0,0.5],[1,0.5]];portConstraint=eastwest;rotatable=0;whiteSpace=wrap;html=1;" vertex="1" parent="BYR6fxOjp8F17I5fI36C-69">
          <mxGeometry y="60" width="130" height="30" as="geometry" />
        </mxCell>
        <mxCell id="BYR6fxOjp8F17I5fI36C-76" value="&lt;p style=&quot;margin-top: 0px; margin-left: 0px; margin-bottom: 65px;&quot;&gt;&lt;b&gt;BufferManager&lt;/b&gt;&lt;/p&gt;" style="rounded=0;whiteSpace=wrap;html=1;align=left;" vertex="1" parent="1">
          <mxGeometry x="80" y="470" width="640" height="90" as="geometry" />
        </mxCell>
        <mxCell id="BYR6fxOjp8F17I5fI36C-78" value="&lt;p style=&quot;margin-top: 0px; margin-left: 0px; margin-bottom: 35px;&quot;&gt;&lt;b&gt;BufferPool&lt;/b&gt;&lt;/p&gt;" style="rounded=1;whiteSpace=wrap;html=1;align=left;fillColor=#fff2cc;strokeColor=#d6b656;" vertex="1" parent="1">
          <mxGeometry x="165" y="480" width="505" height="70" as="geometry" />
        </mxCell>
        <mxCell id="BYR6fxOjp8F17I5fI36C-85" value="&lt;p style=&quot;margin-top: 0px; margin-left: 0px; margin-bottom: 35px;&quot;&gt;&lt;b&gt;Buffer&lt;/b&gt;&lt;/p&gt;" style="rounded=1;whiteSpace=wrap;html=1;align=left;strokeColor=#d79b00;fillColor=#ffe6cc;" vertex="1" parent="1">
          <mxGeometry x="230" y="487.5" width="110" height="55" as="geometry" />
        </mxCell>
        <mxCell id="BYR6fxOjp8F17I5fI36C-80" value="Page" style="rounded=0;whiteSpace=wrap;html=1;fillColor=#d5e8d4;strokeColor=#82b366;" vertex="1" parent="1">
          <mxGeometry x="270" y="495" width="30" height="40" as="geometry" />
        </mxCell>
        <mxCell id="BYR6fxOjp8F17I5fI36C-86" value="pin&lt;div&gt;tx&lt;/div&gt;&lt;div&gt;lsn&lt;/div&gt;" style="text;strokeColor=none;fillColor=none;align=left;verticalAlign=middle;spacingLeft=4;spacingRight=4;overflow=hidden;points=[[0,0.5],[1,0.5]];portConstraint=eastwest;rotatable=0;whiteSpace=wrap;html=1;" vertex="1" parent="1">
          <mxGeometry x="310" y="492.5" width="30" height="45" as="geometry" />
        </mxCell>
        <mxCell id="BYR6fxOjp8F17I5fI36C-88" value="&lt;p style=&quot;margin-top: 0px; margin-left: 0px; margin-bottom: 35px;&quot;&gt;&lt;b&gt;Buffer&lt;/b&gt;&lt;/p&gt;" style="rounded=1;whiteSpace=wrap;html=1;align=left;strokeColor=#d79b00;fillColor=#ffe6cc;" vertex="1" parent="1">
          <mxGeometry x="362.5" y="487.5" width="110" height="55" as="geometry" />
        </mxCell>
        <mxCell id="BYR6fxOjp8F17I5fI36C-89" value="Page" style="rounded=0;whiteSpace=wrap;html=1;fillColor=#d5e8d4;strokeColor=#82b366;" vertex="1" parent="1">
          <mxGeometry x="402.5" y="495" width="30" height="40" as="geometry" />
        </mxCell>
        <mxCell id="BYR6fxOjp8F17I5fI36C-90" value="pin&lt;div&gt;tx&lt;/div&gt;&lt;div&gt;lsn&lt;/div&gt;" style="text;strokeColor=none;fillColor=none;align=left;verticalAlign=middle;spacingLeft=4;spacingRight=4;overflow=hidden;points=[[0,0.5],[1,0.5]];portConstraint=eastwest;rotatable=0;whiteSpace=wrap;html=1;" vertex="1" parent="1">
          <mxGeometry x="442.5" y="492.5" width="30" height="45" as="geometry" />
        </mxCell>
        <mxCell id="BYR6fxOjp8F17I5fI36C-92" value="&lt;p style=&quot;margin-top: 0px; margin-left: 0px; margin-bottom: 35px;&quot;&gt;&lt;b&gt;Buffer&lt;/b&gt;&lt;/p&gt;" style="rounded=1;whiteSpace=wrap;html=1;align=left;strokeColor=#d79b00;fillColor=#ffe6cc;" vertex="1" parent="1">
          <mxGeometry x="500" y="487.5" width="110" height="55" as="geometry" />
        </mxCell>
        <mxCell id="BYR6fxOjp8F17I5fI36C-93" value="Page" style="rounded=0;whiteSpace=wrap;html=1;fillColor=#d5e8d4;strokeColor=#82b366;" vertex="1" parent="1">
          <mxGeometry x="540" y="495" width="30" height="40" as="geometry" />
        </mxCell>
        <mxCell id="BYR6fxOjp8F17I5fI36C-94" value="pin&lt;div&gt;tx&lt;/div&gt;&lt;div&gt;lsn&lt;/div&gt;" style="text;strokeColor=none;fillColor=none;align=left;verticalAlign=middle;spacingLeft=4;spacingRight=4;overflow=hidden;points=[[0,0.5],[1,0.5]];portConstraint=eastwest;rotatable=0;whiteSpace=wrap;html=1;" vertex="1" parent="1">
          <mxGeometry x="580" y="492.5" width="30" height="45" as="geometry" />
        </mxCell>
        <mxCell id="BYR6fxOjp8F17I5fI36C-100" value="&lt;p style=&quot;margin-top: 0px; margin-left: 0px; margin-bottom: 65px;&quot;&gt;&lt;b&gt;RecoveryManager&lt;/b&gt;&lt;/p&gt;" style="rounded=0;whiteSpace=wrap;html=1;align=left;" vertex="1" parent="1">
          <mxGeometry x="80" y="290" width="640" height="90" as="geometry" />
        </mxCell>
        <mxCell id="BYR6fxOjp8F17I5fI36C-101" value="" style="endArrow=classic;html=1;rounded=0;exitX=0.041;exitY=0.992;exitDx=0;exitDy=0;exitPerimeter=0;entryX=0.038;entryY=-0.005;entryDx=0;entryDy=0;entryPerimeter=0;" edge="1" parent="1" source="BYR6fxOjp8F17I5fI36C-100" target="BYR6fxOjp8F17I5fI36C-48">
          <mxGeometry width="50" height="50" relative="1" as="geometry">
            <mxPoint x="410" y="570" as="sourcePoint" />
            <mxPoint x="460" y="520" as="targetPoint" />
          </mxGeometry>
        </mxCell>
        <mxCell id="BYR6fxOjp8F17I5fI36C-102" value="flush()&lt;div&gt;append()&lt;/div&gt;" style="edgeLabel;html=1;align=center;verticalAlign=middle;resizable=0;points=[];" vertex="1" connectable="0" parent="BYR6fxOjp8F17I5fI36C-101">
          <mxGeometry x="0.0437" y="2" relative="1" as="geometry">
            <mxPoint y="-113" as="offset" />
          </mxGeometry>
        </mxCell>
        <mxCell id="BYR6fxOjp8F17I5fI36C-107" value="LogRecord" style="swimlane;fontStyle=0;childLayout=stackLayout;horizontal=1;startSize=30;horizontalStack=0;resizeParent=1;resizeParentMax=0;resizeLast=0;collapsible=1;marginBottom=0;whiteSpace=wrap;html=1;" vertex="1" collapsed="1" parent="1">
          <mxGeometry x="270" y="310" width="130" height="30" as="geometry">
            <mxRectangle x="270" y="310" width="130" height="150" as="alternateBounds" />
          </mxGeometry>
        </mxCell>
        <mxCell id="BYR6fxOjp8F17I5fI36C-108" value="writeToLog()" style="text;strokeColor=none;fillColor=none;align=left;verticalAlign=middle;spacingLeft=4;spacingRight=4;overflow=hidden;points=[[0,0.5],[1,0.5]];portConstraint=eastwest;rotatable=0;whiteSpace=wrap;html=1;" vertex="1" parent="BYR6fxOjp8F17I5fI36C-107">
          <mxGeometry y="30" width="130" height="30" as="geometry" />
        </mxCell>
        <mxCell id="BYR6fxOjp8F17I5fI36C-109" value="op()" style="text;strokeColor=none;fillColor=none;align=left;verticalAlign=middle;spacingLeft=4;spacingRight=4;overflow=hidden;points=[[0,0.5],[1,0.5]];portConstraint=eastwest;rotatable=0;whiteSpace=wrap;html=1;" vertex="1" parent="BYR6fxOjp8F17I5fI36C-107">
          <mxGeometry y="60" width="130" height="30" as="geometry" />
        </mxCell>
        <mxCell id="BYR6fxOjp8F17I5fI36C-113" value="txNumber()" style="text;strokeColor=none;fillColor=none;align=left;verticalAlign=middle;spacingLeft=4;spacingRight=4;overflow=hidden;points=[[0,0.5],[1,0.5]];portConstraint=eastwest;rotatable=0;whiteSpace=wrap;html=1;" vertex="1" parent="BYR6fxOjp8F17I5fI36C-107">
          <mxGeometry y="90" width="130" height="30" as="geometry" />
        </mxCell>
        <mxCell id="BYR6fxOjp8F17I5fI36C-114" value="undo()" style="text;strokeColor=none;fillColor=none;align=left;verticalAlign=middle;spacingLeft=4;spacingRight=4;overflow=hidden;points=[[0,0.5],[1,0.5]];portConstraint=eastwest;rotatable=0;whiteSpace=wrap;html=1;" vertex="1" parent="BYR6fxOjp8F17I5fI36C-107">
          <mxGeometry y="120" width="130" height="30" as="geometry" />
        </mxCell>
        <mxCell id="BYR6fxOjp8F17I5fI36C-140" style="edgeStyle=orthogonalEdgeStyle;rounded=0;orthogonalLoop=1;jettySize=auto;html=1;exitX=0;exitY=0.5;exitDx=0;exitDy=0;entryX=1;entryY=0.5;entryDx=0;entryDy=0;" edge="1" parent="1" source="BYR6fxOjp8F17I5fI36C-110" target="BYR6fxOjp8F17I5fI36C-107">
          <mxGeometry relative="1" as="geometry" />
        </mxCell>
        <mxCell id="BYR6fxOjp8F17I5fI36C-110" value="LogRecordIterator" style="swimlane;fontStyle=0;childLayout=stackLayout;horizontal=1;startSize=30;horizontalStack=0;resizeParent=1;resizeParentMax=0;resizeLast=0;collapsible=1;marginBottom=0;whiteSpace=wrap;html=1;" vertex="1" collapsed="1" parent="1">
          <mxGeometry x="460" y="310" width="130" height="30" as="geometry">
            <mxRectangle x="460" y="310" width="130" height="90" as="alternateBounds" />
          </mxGeometry>
        </mxCell>
        <mxCell id="BYR6fxOjp8F17I5fI36C-111" value="hasNext()" style="text;strokeColor=none;fillColor=none;align=left;verticalAlign=middle;spacingLeft=4;spacingRight=4;overflow=hidden;points=[[0,0.5],[1,0.5]];portConstraint=eastwest;rotatable=0;whiteSpace=wrap;html=1;" vertex="1" parent="BYR6fxOjp8F17I5fI36C-110">
          <mxGeometry y="30" width="130" height="30" as="geometry" />
        </mxCell>
        <mxCell id="BYR6fxOjp8F17I5fI36C-112" value="next()" style="text;strokeColor=none;fillColor=none;align=left;verticalAlign=middle;spacingLeft=4;spacingRight=4;overflow=hidden;points=[[0,0.5],[1,0.5]];portConstraint=eastwest;rotatable=0;whiteSpace=wrap;html=1;" vertex="1" parent="BYR6fxOjp8F17I5fI36C-110">
          <mxGeometry y="60" width="130" height="30" as="geometry" />
        </mxCell>
        <mxCell id="BYR6fxOjp8F17I5fI36C-115" value="" style="endArrow=classic;html=1;rounded=0;exitX=0.25;exitY=1;exitDx=0;exitDy=0;entryX=0.25;entryY=0;entryDx=0;entryDy=0;" edge="1" parent="1" source="BYR6fxOjp8F17I5fI36C-110" target="BYR6fxOjp8F17I5fI36C-69">
          <mxGeometry width="50" height="50" relative="1" as="geometry">
            <mxPoint x="410" y="570" as="sourcePoint" />
            <mxPoint x="460" y="520" as="targetPoint" />
          </mxGeometry>
        </mxCell>
        <mxCell id="BYR6fxOjp8F17I5fI36C-121" value="next()&lt;div&gt;hasNext()&lt;/div&gt;" style="edgeLabel;html=1;align=center;verticalAlign=middle;resizable=0;points=[];" vertex="1" connectable="0" parent="BYR6fxOjp8F17I5fI36C-115">
          <mxGeometry x="-0.5215" relative="1" as="geometry">
            <mxPoint as="offset" />
          </mxGeometry>
        </mxCell>
        <mxCell id="BYR6fxOjp8F17I5fI36C-118" value="" style="endArrow=classic;html=1;rounded=0;exitX=0.25;exitY=1;exitDx=0;exitDy=0;entryX=0.25;entryY=0;entryDx=0;entryDy=0;" edge="1" parent="1">
          <mxGeometry width="50" height="50" relative="1" as="geometry">
            <mxPoint x="350" y="340" as="sourcePoint" />
            <mxPoint x="350" y="700" as="targetPoint" />
          </mxGeometry>
        </mxCell>
        <mxCell id="BYR6fxOjp8F17I5fI36C-120" value="nextInt()&lt;div&gt;nextString()&lt;/div&gt;" style="edgeLabel;html=1;align=center;verticalAlign=middle;resizable=0;points=[];" vertex="1" connectable="0" parent="BYR6fxOjp8F17I5fI36C-118">
          <mxGeometry x="-0.5291" y="1" relative="1" as="geometry">
            <mxPoint as="offset" />
          </mxGeometry>
        </mxCell>
        <mxCell id="BYR6fxOjp8F17I5fI36C-129" value="append()&lt;div&gt;flush()&lt;/div&gt;&lt;div&gt;iterator()&lt;/div&gt;" style="rounded=0;whiteSpace=wrap;html=1;dashed=1;fillColor=#d5e8d4;strokeColor=#82b366;" vertex="1" parent="1">
          <mxGeometry x="730" y="670" width="90" height="90" as="geometry" />
        </mxCell>
        <mxCell id="BYR6fxOjp8F17I5fI36C-130" value="&lt;div&gt;setInt()/&lt;span style=&quot;background-color: initial;&quot;&gt;getInt()&lt;/span&gt;&lt;/div&gt;&lt;div&gt;setString()/&lt;span style=&quot;background-color: initial;&quot;&gt;getString()&lt;/span&gt;&lt;/div&gt;&lt;div&gt;read()&lt;/div&gt;&lt;div&gt;write()&lt;/div&gt;&lt;div&gt;append()&lt;/div&gt;" style="rounded=0;whiteSpace=wrap;html=1;dashed=1;fillColor=#d5e8d4;strokeColor=#82b366;" vertex="1" parent="1">
          <mxGeometry x="730" y="860" width="90" height="90" as="geometry" />
        </mxCell>
        <mxCell id="BYR6fxOjp8F17I5fI36C-131" value="" style="shape=flexArrow;endArrow=classic;html=1;rounded=0;entryX=0.515;entryY=0.007;entryDx=0;entryDy=0;entryPerimeter=0;exitX=0.515;exitY=1.007;exitDx=0;exitDy=0;exitPerimeter=0;" edge="1" parent="1">
          <mxGeometry width="50" height="50" relative="1" as="geometry">
            <mxPoint x="402.5000000000001" y="760.0000000000001" as="sourcePoint" />
            <mxPoint x="402.5000000000001" y="860.0000000000001" as="targetPoint" />
          </mxGeometry>
        </mxCell>
        <mxCell id="BYR6fxOjp8F17I5fI36C-132" value="pin()/unpin()/pinNew()&lt;div&gt;flushAll()&lt;/div&gt;&lt;div&gt;available()&lt;br&gt;&lt;/div&gt;" style="rounded=0;whiteSpace=wrap;html=1;dashed=1;fillColor=#d5e8d4;strokeColor=#82b366;" vertex="1" parent="1">
          <mxGeometry x="730" y="470" width="90" height="90" as="geometry" />
        </mxCell>
        <mxCell id="BYR6fxOjp8F17I5fI36C-133" value="" style="shape=flexArrow;endArrow=classic;html=1;rounded=0;exitX=0.179;exitY=1;exitDx=0;exitDy=0;exitPerimeter=0;entryX=0.179;entryY=-0.001;entryDx=0;entryDy=0;entryPerimeter=0;" edge="1" parent="1" source="BYR6fxOjp8F17I5fI36C-76" target="BYR6fxOjp8F17I5fI36C-4">
          <mxGeometry width="50" height="50" relative="1" as="geometry">
            <mxPoint x="410" y="640" as="sourcePoint" />
            <mxPoint x="460" y="590" as="targetPoint" />
          </mxGeometry>
        </mxCell>
        <mxCell id="BYR6fxOjp8F17I5fI36C-134" value="" style="shape=flexArrow;endArrow=classic;html=1;rounded=0;entryX=0.5;entryY=0;entryDx=0;entryDy=0;exitX=0.515;exitY=1.007;exitDx=0;exitDy=0;exitPerimeter=0;" edge="1" parent="1" target="BYR6fxOjp8F17I5fI36C-48">
          <mxGeometry width="50" height="50" relative="1" as="geometry">
            <mxPoint x="399.3100000000001" y="560.0000000000001" as="sourcePoint" />
            <mxPoint x="399.3100000000001" y="660.0000000000001" as="targetPoint" />
          </mxGeometry>
        </mxCell>
        <mxCell id="BYR6fxOjp8F17I5fI36C-136" value="flush()" style="edgeLabel;html=1;align=center;verticalAlign=middle;resizable=0;points=[];" vertex="1" connectable="0" parent="BYR6fxOjp8F17I5fI36C-134">
          <mxGeometry x="-0.2871" y="-5" relative="1" as="geometry">
            <mxPoint x="5" as="offset" />
          </mxGeometry>
        </mxCell>
        <mxCell id="BYR6fxOjp8F17I5fI36C-137" value="&lt;div style=&quot;&quot;&gt;commit()&lt;span style=&quot;white-space: pre;&quot;&gt;&#x9;&lt;/span&gt;&lt;/div&gt;&lt;div style=&quot;&quot;&gt;rollback()&lt;/div&gt;&lt;div style=&quot;&quot;&gt;recover()&lt;/div&gt;&lt;div style=&quot;&quot;&gt;setInt()&lt;/div&gt;&lt;div style=&quot;&quot;&gt;setString()&lt;/div&gt;" style="rounded=0;whiteSpace=wrap;html=1;dashed=1;fillColor=#d5e8d4;strokeColor=#82b366;align=center;" vertex="1" parent="1">
          <mxGeometry x="730" y="290" width="90" height="90" as="geometry" />
        </mxCell>
        <mxCell id="BYR6fxOjp8F17I5fI36C-138" value="" style="shape=flexArrow;endArrow=classic;html=1;rounded=0;entryX=0.5;entryY=0;entryDx=0;entryDy=0;exitX=0.5;exitY=1;exitDx=0;exitDy=0;" edge="1" parent="1" source="BYR6fxOjp8F17I5fI36C-100" target="BYR6fxOjp8F17I5fI36C-76">
          <mxGeometry width="50" height="50" relative="1" as="geometry">
            <mxPoint x="403" y="390" as="sourcePoint" />
            <mxPoint x="403.19" y="470" as="targetPoint" />
          </mxGeometry>
        </mxCell>
        <mxCell id="BYR6fxOjp8F17I5fI36C-142" value="&lt;p style=&quot;margin-top: 0px; margin-left: 0px; margin-bottom: 65px;&quot;&gt;&lt;b&gt;ConcurrencyManager&lt;/b&gt;&lt;br&gt;&lt;/p&gt;" style="rounded=0;whiteSpace=wrap;html=1;align=left;" vertex="1" parent="1">
          <mxGeometry x="80" y="110" width="640" height="90" as="geometry" />
        </mxCell>
        <mxCell id="BYR6fxOjp8F17I5fI36C-144" value="LockTable" style="swimlane;fontStyle=0;childLayout=stackLayout;horizontal=1;startSize=30;horizontalStack=0;resizeParent=1;resizeParentMax=0;resizeLast=0;collapsible=1;marginBottom=0;whiteSpace=wrap;html=1;" vertex="1" collapsed="1" parent="1">
          <mxGeometry x="460" y="140" width="130" height="30" as="geometry">
            <mxRectangle x="460" y="140" width="130" height="120" as="alternateBounds" />
          </mxGeometry>
        </mxCell>
        <mxCell id="BYR6fxOjp8F17I5fI36C-145" value="sLock()" style="text;strokeColor=none;fillColor=none;align=left;verticalAlign=middle;spacingLeft=4;spacingRight=4;overflow=hidden;points=[[0,0.5],[1,0.5]];portConstraint=eastwest;rotatable=0;whiteSpace=wrap;html=1;" vertex="1" parent="BYR6fxOjp8F17I5fI36C-144">
          <mxGeometry y="30" width="130" height="30" as="geometry" />
        </mxCell>
        <mxCell id="BYR6fxOjp8F17I5fI36C-146" value="xLock()" style="text;strokeColor=none;fillColor=none;align=left;verticalAlign=middle;spacingLeft=4;spacingRight=4;overflow=hidden;points=[[0,0.5],[1,0.5]];portConstraint=eastwest;rotatable=0;whiteSpace=wrap;html=1;" vertex="1" parent="BYR6fxOjp8F17I5fI36C-144">
          <mxGeometry y="60" width="130" height="30" as="geometry" />
        </mxCell>
        <mxCell id="BYR6fxOjp8F17I5fI36C-147" value="unLock()" style="text;strokeColor=none;fillColor=none;align=left;verticalAlign=middle;spacingLeft=4;spacingRight=4;overflow=hidden;points=[[0,0.5],[1,0.5]];portConstraint=eastwest;rotatable=0;whiteSpace=wrap;html=1;" vertex="1" parent="BYR6fxOjp8F17I5fI36C-144">
          <mxGeometry y="90" width="130" height="30" as="geometry" />
        </mxCell>
        <mxCell id="BYR6fxOjp8F17I5fI36C-149" value="&lt;div style=&quot;&quot;&gt;sLock()&lt;/div&gt;&lt;div style=&quot;&quot;&gt;xLock()&lt;/div&gt;&lt;div style=&quot;&quot;&gt;release()&lt;/div&gt;" style="rounded=0;whiteSpace=wrap;html=1;dashed=1;fillColor=#d5e8d4;strokeColor=#82b366;align=center;" vertex="1" parent="1">
          <mxGeometry x="730" y="110" width="90" height="90" as="geometry" />
        </mxCell>
        <mxCell id="BYR6fxOjp8F17I5fI36C-150" value="BufferList" style="swimlane;fontStyle=0;childLayout=stackLayout;horizontal=1;startSize=30;horizontalStack=0;resizeParent=1;resizeParentMax=0;resizeLast=0;collapsible=1;marginBottom=0;whiteSpace=wrap;html=1;" vertex="1" collapsed="1" parent="1">
          <mxGeometry x="165" y="140" width="130" height="30" as="geometry">
            <mxRectangle x="165" y="140" width="130" height="150" as="alternateBounds" />
          </mxGeometry>
        </mxCell>
        <mxCell id="BYR6fxOjp8F17I5fI36C-151" value="pin()" style="text;strokeColor=none;fillColor=none;align=left;verticalAlign=middle;spacingLeft=4;spacingRight=4;overflow=hidden;points=[[0,0.5],[1,0.5]];portConstraint=eastwest;rotatable=0;whiteSpace=wrap;html=1;" vertex="1" parent="BYR6fxOjp8F17I5fI36C-150">
          <mxGeometry y="30" width="130" height="30" as="geometry" />
        </mxCell>
        <mxCell id="BYR6fxOjp8F17I5fI36C-156" value="unpin()" style="text;strokeColor=none;fillColor=none;align=left;verticalAlign=middle;spacingLeft=4;spacingRight=4;overflow=hidden;points=[[0,0.5],[1,0.5]];portConstraint=eastwest;rotatable=0;whiteSpace=wrap;html=1;" vertex="1" parent="BYR6fxOjp8F17I5fI36C-150">
          <mxGeometry y="60" width="130" height="30" as="geometry" />
        </mxCell>
        <mxCell id="BYR6fxOjp8F17I5fI36C-152" value="pinNew()" style="text;strokeColor=none;fillColor=none;align=left;verticalAlign=middle;spacingLeft=4;spacingRight=4;overflow=hidden;points=[[0,0.5],[1,0.5]];portConstraint=eastwest;rotatable=0;whiteSpace=wrap;html=1;" vertex="1" parent="BYR6fxOjp8F17I5fI36C-150">
          <mxGeometry y="90" width="130" height="30" as="geometry" />
        </mxCell>
        <mxCell id="BYR6fxOjp8F17I5fI36C-153" value="unpinAll()" style="text;strokeColor=none;fillColor=none;align=left;verticalAlign=middle;spacingLeft=4;spacingRight=4;overflow=hidden;points=[[0,0.5],[1,0.5]];portConstraint=eastwest;rotatable=0;whiteSpace=wrap;html=1;" vertex="1" parent="BYR6fxOjp8F17I5fI36C-150">
          <mxGeometry y="120" width="130" height="30" as="geometry" />
        </mxCell>
        <mxCell id="BYR6fxOjp8F17I5fI36C-154" value="" style="endArrow=classic;html=1;rounded=0;exitX=0.25;exitY=1;exitDx=0;exitDy=0;entryX=0.185;entryY=0.011;entryDx=0;entryDy=0;entryPerimeter=0;" edge="1" parent="1" source="BYR6fxOjp8F17I5fI36C-150" target="BYR6fxOjp8F17I5fI36C-76">
          <mxGeometry width="50" height="50" relative="1" as="geometry">
            <mxPoint x="410" y="340" as="sourcePoint" />
            <mxPoint x="460" y="290" as="targetPoint" />
          </mxGeometry>
        </mxCell>
        <mxCell id="BYR6fxOjp8F17I5fI36C-155" value="pin()&lt;div&gt;pinNew()&lt;/div&gt;&lt;div&gt;unpin()&lt;/div&gt;" style="edgeLabel;html=1;align=center;verticalAlign=middle;resizable=0;points=[];" vertex="1" connectable="0" parent="BYR6fxOjp8F17I5fI36C-154">
          <mxGeometry x="-0.5078" y="1" relative="1" as="geometry">
            <mxPoint as="offset" />
          </mxGeometry>
        </mxCell>
      </root>
    </mxGraphModel>
  </diagram>
</mxfile>
